<mxfile host="app.diagrams.net" modified="2024-05-16T06:40:18.574Z" agent="Mozilla/5.0 (Windows NT 10.0; Win64; x64) AppleWebKit/537.36 (KHTML, like Gecko) Chrome/124.0.0.0 Safari/537.36 Edg/124.0.0.0" etag="Z9mFcO0VnNA0ui-X3fn7" version="24.3.1" type="device">
  <diagram id="C5RBs43oDa-KdzZeNtuy" name="Page-1">
    <mxGraphModel dx="1948" dy="975" grid="1" gridSize="10" guides="1" tooltips="1" connect="1" arrows="1" fold="1" page="1" pageScale="1" pageWidth="827" pageHeight="1169" math="0" shadow="0">
      <root>
        <mxCell id="WIyWlLk6GJQsqaUBKTNV-0" />
        <mxCell id="WIyWlLk6GJQsqaUBKTNV-1" parent="WIyWlLk6GJQsqaUBKTNV-0" />
        <mxCell id="mBBtBcO-fJvRGpITPZTJ-137" style="edgeStyle=orthogonalEdgeStyle;rounded=0;orthogonalLoop=1;jettySize=auto;html=1;exitX=0.5;exitY=1;exitDx=0;exitDy=0;entryX=0.5;entryY=0;entryDx=0;entryDy=0;" edge="1" parent="WIyWlLk6GJQsqaUBKTNV-1" source="mBBtBcO-fJvRGpITPZTJ-134" target="mBBtBcO-fJvRGpITPZTJ-135">
          <mxGeometry relative="1" as="geometry" />
        </mxCell>
        <mxCell id="mBBtBcO-fJvRGpITPZTJ-134" value="关闭" style="rounded=1;whiteSpace=wrap;html=1;" vertex="1" parent="WIyWlLk6GJQsqaUBKTNV-1">
          <mxGeometry x="300" y="230" width="120" height="60" as="geometry" />
        </mxCell>
        <mxCell id="mBBtBcO-fJvRGpITPZTJ-139" style="edgeStyle=orthogonalEdgeStyle;rounded=0;orthogonalLoop=1;jettySize=auto;html=1;exitX=0.5;exitY=1;exitDx=0;exitDy=0;" edge="1" parent="WIyWlLk6GJQsqaUBKTNV-1" source="mBBtBcO-fJvRGpITPZTJ-135" target="mBBtBcO-fJvRGpITPZTJ-136">
          <mxGeometry relative="1" as="geometry" />
        </mxCell>
        <mxCell id="mBBtBcO-fJvRGpITPZTJ-135" value="开启" style="rounded=1;whiteSpace=wrap;html=1;" vertex="1" parent="WIyWlLk6GJQsqaUBKTNV-1">
          <mxGeometry x="300" y="340" width="120" height="60" as="geometry" />
        </mxCell>
        <mxCell id="mBBtBcO-fJvRGpITPZTJ-142" style="edgeStyle=orthogonalEdgeStyle;rounded=0;orthogonalLoop=1;jettySize=auto;html=1;exitX=0.25;exitY=1;exitDx=0;exitDy=0;" edge="1" parent="WIyWlLk6GJQsqaUBKTNV-1" source="mBBtBcO-fJvRGpITPZTJ-136" target="mBBtBcO-fJvRGpITPZTJ-140">
          <mxGeometry relative="1" as="geometry" />
        </mxCell>
        <mxCell id="mBBtBcO-fJvRGpITPZTJ-143" style="edgeStyle=orthogonalEdgeStyle;rounded=0;orthogonalLoop=1;jettySize=auto;html=1;exitX=0.75;exitY=1;exitDx=0;exitDy=0;entryX=0.5;entryY=0;entryDx=0;entryDy=0;" edge="1" parent="WIyWlLk6GJQsqaUBKTNV-1" source="mBBtBcO-fJvRGpITPZTJ-136" target="mBBtBcO-fJvRGpITPZTJ-141">
          <mxGeometry relative="1" as="geometry" />
        </mxCell>
        <mxCell id="mBBtBcO-fJvRGpITPZTJ-136" value="选择摄像模式" style="rounded=1;whiteSpace=wrap;html=1;" vertex="1" parent="WIyWlLk6GJQsqaUBKTNV-1">
          <mxGeometry x="300" y="450" width="120" height="60" as="geometry" />
        </mxCell>
        <mxCell id="mBBtBcO-fJvRGpITPZTJ-138" value="使用摄像头" style="text;html=1;align=center;verticalAlign=middle;resizable=0;points=[];autosize=1;strokeColor=none;fillColor=none;" vertex="1" parent="WIyWlLk6GJQsqaUBKTNV-1">
          <mxGeometry x="370" y="300" width="80" height="30" as="geometry" />
        </mxCell>
        <mxCell id="mBBtBcO-fJvRGpITPZTJ-145" style="edgeStyle=orthogonalEdgeStyle;rounded=0;orthogonalLoop=1;jettySize=auto;html=1;exitX=0.5;exitY=1;exitDx=0;exitDy=0;" edge="1" parent="WIyWlLk6GJQsqaUBKTNV-1" source="mBBtBcO-fJvRGpITPZTJ-140" target="mBBtBcO-fJvRGpITPZTJ-144">
          <mxGeometry relative="1" as="geometry" />
        </mxCell>
        <mxCell id="mBBtBcO-fJvRGpITPZTJ-140" value="拍照" style="rounded=1;whiteSpace=wrap;html=1;" vertex="1" parent="WIyWlLk6GJQsqaUBKTNV-1">
          <mxGeometry x="180" y="555" width="120" height="60" as="geometry" />
        </mxCell>
        <mxCell id="mBBtBcO-fJvRGpITPZTJ-146" style="edgeStyle=orthogonalEdgeStyle;rounded=0;orthogonalLoop=1;jettySize=auto;html=1;exitX=0.5;exitY=1;exitDx=0;exitDy=0;" edge="1" parent="WIyWlLk6GJQsqaUBKTNV-1" source="mBBtBcO-fJvRGpITPZTJ-141">
          <mxGeometry relative="1" as="geometry">
            <mxPoint x="350" y="660" as="targetPoint" />
          </mxGeometry>
        </mxCell>
        <mxCell id="mBBtBcO-fJvRGpITPZTJ-141" value="摄影" style="rounded=1;whiteSpace=wrap;html=1;" vertex="1" parent="WIyWlLk6GJQsqaUBKTNV-1">
          <mxGeometry x="420" y="555" width="120" height="60" as="geometry" />
        </mxCell>
        <mxCell id="mBBtBcO-fJvRGpITPZTJ-148" style="edgeStyle=orthogonalEdgeStyle;rounded=0;orthogonalLoop=1;jettySize=auto;html=1;exitX=1;exitY=0.25;exitDx=0;exitDy=0;entryX=0;entryY=0.25;entryDx=0;entryDy=0;" edge="1" parent="WIyWlLk6GJQsqaUBKTNV-1" source="mBBtBcO-fJvRGpITPZTJ-144" target="mBBtBcO-fJvRGpITPZTJ-147">
          <mxGeometry relative="1" as="geometry" />
        </mxCell>
        <mxCell id="mBBtBcO-fJvRGpITPZTJ-152" style="edgeStyle=orthogonalEdgeStyle;rounded=0;orthogonalLoop=1;jettySize=auto;html=1;exitX=0;exitY=0.25;exitDx=0;exitDy=0;entryX=1;entryY=0.25;entryDx=0;entryDy=0;" edge="1" parent="WIyWlLk6GJQsqaUBKTNV-1" source="mBBtBcO-fJvRGpITPZTJ-144" target="mBBtBcO-fJvRGpITPZTJ-151">
          <mxGeometry relative="1" as="geometry" />
        </mxCell>
        <mxCell id="mBBtBcO-fJvRGpITPZTJ-160" style="edgeStyle=orthogonalEdgeStyle;rounded=0;orthogonalLoop=1;jettySize=auto;html=1;exitX=0.25;exitY=1;exitDx=0;exitDy=0;" edge="1" parent="WIyWlLk6GJQsqaUBKTNV-1" source="mBBtBcO-fJvRGpITPZTJ-144" target="mBBtBcO-fJvRGpITPZTJ-157">
          <mxGeometry relative="1" as="geometry" />
        </mxCell>
        <mxCell id="mBBtBcO-fJvRGpITPZTJ-163" style="edgeStyle=orthogonalEdgeStyle;rounded=0;orthogonalLoop=1;jettySize=auto;html=1;exitX=0.75;exitY=1;exitDx=0;exitDy=0;entryX=0.5;entryY=0;entryDx=0;entryDy=0;" edge="1" parent="WIyWlLk6GJQsqaUBKTNV-1" source="mBBtBcO-fJvRGpITPZTJ-144" target="mBBtBcO-fJvRGpITPZTJ-162">
          <mxGeometry relative="1" as="geometry" />
        </mxCell>
        <mxCell id="mBBtBcO-fJvRGpITPZTJ-144" value="摄像系数调整:&lt;div&gt;如光圈、对比度等等&lt;/div&gt;" style="rounded=1;whiteSpace=wrap;html=1;" vertex="1" parent="WIyWlLk6GJQsqaUBKTNV-1">
          <mxGeometry x="290" y="660" width="120" height="60" as="geometry" />
        </mxCell>
        <mxCell id="mBBtBcO-fJvRGpITPZTJ-150" style="edgeStyle=orthogonalEdgeStyle;rounded=0;orthogonalLoop=1;jettySize=auto;html=1;exitX=0;exitY=0.75;exitDx=0;exitDy=0;entryX=1;entryY=0.75;entryDx=0;entryDy=0;" edge="1" parent="WIyWlLk6GJQsqaUBKTNV-1" source="mBBtBcO-fJvRGpITPZTJ-147" target="mBBtBcO-fJvRGpITPZTJ-144">
          <mxGeometry relative="1" as="geometry" />
        </mxCell>
        <mxCell id="mBBtBcO-fJvRGpITPZTJ-147" value="反转摄像头" style="rounded=1;whiteSpace=wrap;html=1;" vertex="1" parent="WIyWlLk6GJQsqaUBKTNV-1">
          <mxGeometry x="510" y="660" width="120" height="60" as="geometry" />
        </mxCell>
        <mxCell id="mBBtBcO-fJvRGpITPZTJ-153" style="edgeStyle=orthogonalEdgeStyle;rounded=0;orthogonalLoop=1;jettySize=auto;html=1;exitX=1;exitY=0.75;exitDx=0;exitDy=0;entryX=0;entryY=0.75;entryDx=0;entryDy=0;" edge="1" parent="WIyWlLk6GJQsqaUBKTNV-1" source="mBBtBcO-fJvRGpITPZTJ-151" target="mBBtBcO-fJvRGpITPZTJ-144">
          <mxGeometry relative="1" as="geometry" />
        </mxCell>
        <mxCell id="mBBtBcO-fJvRGpITPZTJ-151" value="放大缩小" style="rounded=1;whiteSpace=wrap;html=1;" vertex="1" parent="WIyWlLk6GJQsqaUBKTNV-1">
          <mxGeometry x="90" y="660" width="120" height="60" as="geometry" />
        </mxCell>
        <mxCell id="mBBtBcO-fJvRGpITPZTJ-161" style="edgeStyle=orthogonalEdgeStyle;rounded=0;orthogonalLoop=1;jettySize=auto;html=1;exitX=0.5;exitY=1;exitDx=0;exitDy=0;entryX=0;entryY=0.5;entryDx=0;entryDy=0;" edge="1" parent="WIyWlLk6GJQsqaUBKTNV-1" source="mBBtBcO-fJvRGpITPZTJ-157" target="mBBtBcO-fJvRGpITPZTJ-159">
          <mxGeometry relative="1" as="geometry" />
        </mxCell>
        <mxCell id="mBBtBcO-fJvRGpITPZTJ-157" value="拍照" style="rounded=1;whiteSpace=wrap;html=1;" vertex="1" parent="WIyWlLk6GJQsqaUBKTNV-1">
          <mxGeometry x="140" y="790" width="120" height="60" as="geometry" />
        </mxCell>
        <mxCell id="mBBtBcO-fJvRGpITPZTJ-168" style="edgeStyle=orthogonalEdgeStyle;rounded=0;orthogonalLoop=1;jettySize=auto;html=1;exitX=0.5;exitY=0;exitDx=0;exitDy=0;entryX=0.5;entryY=1;entryDx=0;entryDy=0;" edge="1" parent="WIyWlLk6GJQsqaUBKTNV-1" source="mBBtBcO-fJvRGpITPZTJ-159" target="mBBtBcO-fJvRGpITPZTJ-144">
          <mxGeometry relative="1" as="geometry" />
        </mxCell>
        <mxCell id="mBBtBcO-fJvRGpITPZTJ-170" style="edgeStyle=orthogonalEdgeStyle;rounded=0;orthogonalLoop=1;jettySize=auto;html=1;exitX=0.5;exitY=1;exitDx=0;exitDy=0;entryX=0.5;entryY=1;entryDx=0;entryDy=0;" edge="1" parent="WIyWlLk6GJQsqaUBKTNV-1" source="mBBtBcO-fJvRGpITPZTJ-159" target="mBBtBcO-fJvRGpITPZTJ-169">
          <mxGeometry relative="1" as="geometry" />
        </mxCell>
        <mxCell id="mBBtBcO-fJvRGpITPZTJ-159" value="将结果存回图库" style="rounded=1;whiteSpace=wrap;html=1;" vertex="1" parent="WIyWlLk6GJQsqaUBKTNV-1">
          <mxGeometry x="290" y="900" width="120" height="60" as="geometry" />
        </mxCell>
        <mxCell id="mBBtBcO-fJvRGpITPZTJ-165" style="edgeStyle=orthogonalEdgeStyle;rounded=0;orthogonalLoop=1;jettySize=auto;html=1;exitX=1;exitY=0.5;exitDx=0;exitDy=0;" edge="1" parent="WIyWlLk6GJQsqaUBKTNV-1" source="mBBtBcO-fJvRGpITPZTJ-162" target="mBBtBcO-fJvRGpITPZTJ-164">
          <mxGeometry relative="1" as="geometry" />
        </mxCell>
        <mxCell id="mBBtBcO-fJvRGpITPZTJ-162" value="录像" style="rounded=1;whiteSpace=wrap;html=1;" vertex="1" parent="WIyWlLk6GJQsqaUBKTNV-1">
          <mxGeometry x="390" y="790" width="120" height="60" as="geometry" />
        </mxCell>
        <mxCell id="mBBtBcO-fJvRGpITPZTJ-166" style="edgeStyle=orthogonalEdgeStyle;rounded=0;orthogonalLoop=1;jettySize=auto;html=1;exitX=0.5;exitY=1;exitDx=0;exitDy=0;entryX=1;entryY=0.5;entryDx=0;entryDy=0;" edge="1" parent="WIyWlLk6GJQsqaUBKTNV-1" source="mBBtBcO-fJvRGpITPZTJ-164" target="mBBtBcO-fJvRGpITPZTJ-159">
          <mxGeometry relative="1" as="geometry" />
        </mxCell>
        <mxCell id="mBBtBcO-fJvRGpITPZTJ-164" value="结束录制" style="rounded=1;whiteSpace=wrap;html=1;" vertex="1" parent="WIyWlLk6GJQsqaUBKTNV-1">
          <mxGeometry x="570" y="790" width="120" height="60" as="geometry" />
        </mxCell>
        <mxCell id="mBBtBcO-fJvRGpITPZTJ-171" style="edgeStyle=orthogonalEdgeStyle;rounded=0;orthogonalLoop=1;jettySize=auto;html=1;exitX=0.5;exitY=0;exitDx=0;exitDy=0;entryX=1;entryY=0.5;entryDx=0;entryDy=0;" edge="1" parent="WIyWlLk6GJQsqaUBKTNV-1" source="mBBtBcO-fJvRGpITPZTJ-169" target="mBBtBcO-fJvRGpITPZTJ-134">
          <mxGeometry relative="1" as="geometry" />
        </mxCell>
        <mxCell id="mBBtBcO-fJvRGpITPZTJ-169" value="退出摄像软件" style="rounded=1;whiteSpace=wrap;html=1;" vertex="1" parent="WIyWlLk6GJQsqaUBKTNV-1">
          <mxGeometry x="707" y="660" width="120" height="60" as="geometry" />
        </mxCell>
      </root>
    </mxGraphModel>
  </diagram>
</mxfile>
